<?xml version="1.0" standalone="no"?>
<!DOCTYPE svg PUBLIC "-//W3C//DTD SVG 20010904//EN"
 "http://www.w3.org/TR/2001/REC-SVG-20010904/DTD/svg10.dtd">
<svg version="1.0" xmlns="http://www.w3.org/2000/svg"
 width="900.000000pt" height="318.000000pt" viewBox="0 0 900.000000 318.000000"
 preserveAspectRatio="xMidYMid meet">
<metadata>
Created by potrace 1.10, written by Peter Selinger 2001-2011
</metadata>
<g transform="translate(0.000000,318.000000) scale(0.100000,-0.100000)"
fill="#000000" stroke="none">
<path d="M2590 2832 c-79 -1 -148 -6 -153 -11 -8 -8 -11 -1590 -3 -1599 6 -6
298 -3 304 3 4 4 3 116 -2 650 -1 55 1 60 21 63 23 3 27 -4 37 -78 5 -43 23
-118 35 -145 9 -21 27 -88 40 -145 4 -19 13 -45 19 -57 7 -12 12 -32 12 -45 0
-37 27 -103 43 -106 9 -2 18 6 21 20 4 13 11 41 17 63 6 22 15 54 21 70 6 17
12 44 15 60 3 17 11 44 19 62 8 17 14 36 14 43 0 7 7 35 16 64 30 95 34 112
34 144 0 22 9 40 31 60 36 33 32 52 -8 44 -34 -7 -95 -72 -131 -142 -37 -71
-54 -74 -89 -14 -16 26 -51 72 -80 103 -52 55 -53 56 -80 41 -36 -20 -90 -92
-103 -138 -5 -20 -15 -120 -20 -222 -6 -102 -15 -196 -21 -210 -10 -23 -12
-23 -23 -8 -16 22 -26 347 -26 859 0 366 1 377 21 403 25 32 70 35 96 7 10
-11 36 -82 57 -158 53 -193 84 -282 111 -325 27 -41 84 -88 107 -88 26 0 105
77 127 125 26 55 39 97 75 230 52 192 75 235 128 235 59 0 58 14 58 -654 0
-591 -3 -658 -30 -641 -18 11 -30 82 -30 180 0 156 -17 283 -43 334 -12 25
-27 46 -33 48 -5 2 -17 -32 -27 -74 -13 -62 -17 -138 -18 -365 -2 -159 1 -291
4 -294 6 -6 298 -6 304 0 7 7 3 1600 -4 1606 -4 5 -55 5 -113 0 -58 -5 -128
-6 -155 -3 -57 6 -69 -2 -78 -52 -7 -37 -25 -108 -40 -155 -6 -19 -14 -53 -18
-75 -4 -22 -11 -53 -17 -70 -18 -54 -47 -179 -60 -265 -6 -36 -11 -45 -27 -45
-20 0 -23 8 -44 125 -12 65 -40 178 -74 300 -9 30 -18 66 -21 80 -3 14 -10 43
-15 65 -6 22 -13 52 -16 66 -3 15 -13 28 -22 30 -10 2 -83 3 -163 1z"/>
<path d="M3599 2830 c0 -3 0 -365 1 -805 l0 -800 323 -3 c285 -2 327 0 370 15
68 24 103 71 116 154 15 92 15 1269 0 1320 -7 21 -27 52 -45 70 -32 31 -38 32
-141 40 -124 9 -623 16 -624 9z m320 -139 c12 -8 5 -21 -34 -66 -90 -106 -85
-70 -85 -576 0 -245 3 -468 7 -495 5 -44 14 -57 79 -122 39 -39 68 -75 63 -78
-5 -3 -49 -8 -97 -11 -88 -6 -89 -5 -110 22 l-22 28 0 620 c0 610 0 620 21
653 20 34 22 34 92 34 40 0 78 -4 86 -9z m348 -25 l23 -28 -2 -614 -3 -614
-27 -26 c-31 -31 -106 -47 -150 -32 -15 6 -28 12 -28 15 0 3 23 30 50 60 91
100 85 57 85 588 0 259 -3 482 -8 497 -4 15 -32 57 -63 93 -48 56 -54 68 -43
81 10 13 28 15 77 12 56 -4 68 -8 89 -32z m-193 -116 l26 -10 -2 -522 -3 -523
-87 -3 c-67 -2 -88 0 -88 10 -4 113 1 1042 6 1049 7 12 116 12 148 -1z"/>
<path d="M5330 2830 l-145 -5 0 -800 0 -800 301 -3 302 -2 11 31 c6 18 11 53
11 79 0 26 7 64 15 83 8 20 15 52 15 72 l0 35 -165 0 -166 0 1 648 c1 356 1
653 0 660 0 6 -8 11 -17 10 -10 -1 -83 -5 -163 -8z m51 -167 c11 -13 15 -120
19 -564 l5 -547 31 -44 c46 -62 91 -95 154 -111 114 -29 50 -53 -148 -56 -75
-1 -85 1 -107 24 l-25 24 0 620 c0 449 3 627 12 646 13 29 39 33 59 8z"/>
<path d="M5955 2831 c-3 -6 -5 -298 -3 -648 2 -351 3 -710 3 -798 l0 -160 154
-3 154 -3 -5 366 -5 366 21 -3 c15 -2 22 -11 24 -33 2 -16 6 -37 9 -45 4 -8
12 -37 19 -65 6 -27 19 -75 28 -105 10 -30 21 -71 25 -90 5 -19 13 -46 19 -60
6 -14 19 -62 29 -107 14 -65 22 -83 35 -83 21 0 38 29 38 66 0 24 12 68 42
159 5 17 14 46 18 65 5 19 16 60 26 90 9 30 20 79 24 109 6 37 17 62 34 80 43
42 48 22 36 -130 -6 -74 -10 -233 -8 -354 l3 -220 153 -3 152 -3 0 803 0 803
-165 -1 c-114 -1 -170 -6 -180 -14 -9 -7 -15 -30 -15 -54 -1 -22 -7 -52 -15
-66 -8 -14 -14 -37 -15 -51 0 -15 -7 -43 -15 -62 -8 -20 -15 -48 -15 -63 0
-14 -7 -47 -15 -73 -35 -114 -45 -156 -45 -201 0 -51 -16 -74 -47 -68 -14 2
-20 16 -25 58 -12 98 -26 167 -37 188 -6 11 -11 31 -11 43 0 11 -6 42 -14 68
-23 72 -43 151 -57 213 -6 31 -15 61 -19 67 -4 7 -58 13 -141 16 -74 3 -146 8
-161 11 -14 3 -29 0 -33 -5z m225 -161 c25 -25 43 -69 64 -156 10 -38 33 -120
53 -182 32 -104 39 -117 93 -173 67 -71 79 -72 147 -6 44 42 84 130 112 242
44 176 70 253 94 276 27 25 69 24 93 -2 18 -20 19 -47 22 -620 1 -330 -1 -614
-6 -631 -4 -17 -13 -33 -19 -35 -27 -9 -38 45 -44 217 -6 174 -19 253 -47 300
-30 49 -66 80 -92 80 -32 0 -95 -63 -137 -135 -19 -32 -36 -50 -48 -50 -12 0
-28 18 -46 50 -34 62 -94 133 -126 148 -21 9 -28 6 -64 -29 -72 -69 -80 -100
-88 -344 -3 -118 -10 -221 -14 -227 -14 -22 -27 -14 -43 22 -12 30 -14 125
-12 634 3 573 4 600 22 620 24 26 60 27 86 1z"/>
<path d="M7309 2820 c-67 -5 -92 -12 -117 -30 -18 -13 -32 -28 -32 -34 0 -5
-7 -17 -16 -27 -13 -14 -15 -66 -15 -385 l0 -368 33 -33 c41 -40 99 -53 243
-53 75 0 106 -4 114 -14 8 -9 11 -66 9 -182 l-3 -169 -190 -3 c-104 -1 -193
-6 -198 -11 -5 -5 -2 -22 7 -39 9 -17 16 -44 16 -61 0 -16 5 -42 11 -58 6 -15
14 -50 18 -78 l6 -50 246 -3 c226 -2 249 -1 290 17 24 11 54 33 65 48 45 63
49 100 49 433 0 334 -3 357 -49 407 -20 22 -29 23 -174 23 -86 0 -162 5 -173
10 -18 10 -19 23 -19 183 0 165 1 173 21 185 16 11 64 13 200 11 98 -2 180 -1
184 2 6 6 -6 64 -31 155 -8 28 -14 67 -14 86 0 29 -5 37 -22 42 -30 8 -348 5
-459 -4z m165 -126 c18 -7 22 -34 5 -34 -19 0 -131 -114 -145 -147 -19 -44
-19 -281 0 -326 7 -18 34 -56 61 -85 61 -68 57 -82 -30 -82 -57 0 -69 3 -90
25 l-25 24 0 275 c0 184 4 283 11 300 7 14 26 32 43 40 31 15 140 22 170 10z
m169 -670 c65 -11 68 -26 68 -328 0 -153 -4 -273 -10 -288 -6 -16 -27 -36 -52
-49 -39 -20 -52 -21 -166 -14 -68 4 -126 12 -129 17 -10 16 17 28 64 28 58 0
110 29 165 90 59 66 69 105 65 250 -3 128 -4 131 -91 234 -21 25 -36 50 -32
56 7 11 60 13 118 4z"/>
<path d="M945 2628 c-57 -29 -74 -36 -162 -74 -21 -9 -51 -22 -66 -30 -16 -8
-37 -14 -47 -14 -9 0 -23 -7 -30 -15 -7 -8 -23 -15 -35 -15 -12 0 -28 -7 -35
-15 -7 -8 -18 -15 -26 -15 -7 0 -30 -7 -51 -16 -61 -27 -106 -46 -138 -59 -16
-6 -47 -19 -68 -28 -20 -9 -54 -24 -75 -33 -20 -8 -50 -22 -65 -30 -16 -8 -35
-14 -44 -14 -8 0 -27 -6 -41 -14 -15 -8 -35 -17 -44 -20 -22 -7 -25 -56 -3
-56 8 0 31 -7 52 -16 21 -9 54 -24 73 -32 19 -8 48 -21 63 -28 16 -8 37 -14
47 -14 11 0 24 -9 30 -19 8 -15 3 -30 -23 -72 -17 -29 -43 -65 -57 -79 -24
-26 -26 -34 -26 -132 -1 -58 -7 -126 -14 -152 -16 -59 -4 -76 55 -76 54 0 58
9 43 108 -27 181 -5 267 97 383 36 40 109 99 123 99 5 0 15 7 22 15 7 8 22 15
34 15 11 0 34 7 50 15 22 12 69 15 216 15 l189 0 21 -27 c21 -27 21 -65 -1
-87 -5 -6 -66 -6 -158 1 -164 12 -310 2 -348 -23 -12 -8 -28 -14 -36 -14 -17
0 -59 -44 -50 -53 3 -4 14 -7 24 -7 9 0 31 -7 48 -15 17 -8 45 -22 62 -30 17
-8 37 -15 44 -15 7 0 26 -6 42 -14 15 -8 45 -22 65 -30 21 -9 55 -24 75 -33
21 -9 52 -22 68 -29 17 -7 60 -27 98 -45 l67 -33 38 18 c20 10 51 24 67 30 17
7 48 21 70 30 22 10 56 25 75 33 19 8 48 21 63 29 16 8 35 14 42 14 7 0 26 6
42 14 15 7 46 21 68 31 22 9 53 23 68 31 16 8 35 14 42 14 7 0 26 6 42 14 15
7 44 20 63 28 55 23 113 49 143 64 16 8 35 14 44 14 8 0 27 6 41 14 15 8 53
22 84 31 32 9 61 22 65 27 7 13 -23 37 -57 44 -14 3 -40 12 -57 20 -18 8 -49
21 -68 29 -37 15 -81 34 -143 61 -20 8 -50 22 -65 30 -16 8 -37 14 -47 14 -9
0 -23 7 -30 15 -7 8 -23 15 -35 15 -12 0 -28 7 -35 15 -7 8 -23 15 -35 15 -12
0 -28 7 -35 15 -7 8 -21 15 -30 15 -10 0 -31 6 -47 14 -29 15 -84 39 -140 63
-18 7 -47 20 -65 28 -18 8 -57 24 -85 37 -29 13 -53 26 -53 30 0 15 -35 6 -95
-24z m219 -170 c187 -81 292 -126 326 -138 70 -25 220 -102 220 -112 0 -11
-40 -47 -54 -48 -4 0 -52 -20 -105 -44 -53 -24 -130 -58 -171 -74 -41 -17
-123 -51 -183 -76 -154 -65 -210 -71 -266 -27 l-24 18 50 17 c62 21 163 119
163 160 0 81 -91 172 -190 189 -19 4 -84 7 -143 9 -60 1 -111 6 -114 11 -9 16
47 53 142 93 201 86 202 86 349 22z"/>
<path d="M4580 2116 c-4 -4 -6 -23 -3 -41 3 -19 -2 -68 -12 -110 -9 -42 -14
-79 -11 -82 3 -3 109 -6 237 -7 253 -1 256 0 245 57 -4 18 1 62 11 104 9 40
14 76 10 79 -10 10 -467 10 -477 0z"/>
<path d="M468 1873 c-2 -5 -2 -81 0 -170 l4 -162 91 -68 c51 -38 110 -77 132
-87 22 -11 52 -25 67 -33 14 -7 34 -13 45 -13 10 0 36 -7 58 -15 56 -20 254
-20 302 0 19 8 44 15 53 15 10 0 31 6 47 14 15 7 46 22 68 32 57 27 164 101
203 140 l32 33 4 161 4 160 -23 0 c-12 0 -28 -7 -35 -15 -7 -8 -20 -15 -30
-15 -10 0 -23 -7 -30 -15 -7 -8 -19 -15 -27 -15 -8 0 -27 -6 -41 -13 -15 -8
-42 -21 -60 -30 -19 -9 -40 -17 -47 -17 -7 0 -26 -6 -42 -14 -15 -7 -44 -20
-63 -28 -19 -8 -51 -22 -70 -30 -100 -45 -99 -45 -195 -3 -79 35 -173 78 -198
91 -16 8 -33 14 -37 14 -15 0 -159 71 -165 81 -7 11 -42 12 -47 2z m290 -247
c216 -99 270 -100 484 -12 76 31 147 56 157 56 11 0 22 -9 26 -20 23 -72 -153
-182 -335 -211 -96 -15 -234 8 -331 55 -87 42 -159 104 -159 139 0 51 33 50
158 -7z"/>
<path d="M2963 979 c-13 -13 -4 -141 11 -151 13 -9 128 -10 150 -2 24 9 19 33
-8 40 -13 3 -39 4 -57 2 l-34 -3 -3 55 c-4 64 -29 89 -59 59z"/>
<path d="M3374 977 c-3 -8 -4 -45 -2 -83 l3 -69 60 -1 c73 -2 95 3 95 21 0 10
-16 15 -55 17 -67 4 -77 21 -15 28 25 3 45 10 45 15 0 6 -20 12 -45 15 -66 7
-55 25 18 28 53 3 63 6 60 20 -3 14 -17 18 -81 20 -59 2 -79 0 -83 -11z"/>
<path d="M3827 961 c-6 -17 -15 -31 -19 -31 -4 0 -8 -6 -8 -14 0 -7 -9 -25
-21 -40 -38 -48 -5 -74 44 -36 14 11 35 20 46 20 12 0 29 -9 38 -20 10 -11 25
-20 35 -20 27 0 22 37 -16 105 -26 48 -38 61 -60 63 -22 3 -29 -2 -39 -27z
m57 -40 c7 -10 -3 -41 -13 -41 -3 0 -12 4 -20 9 -12 8 -12 12 -2 25 15 18 27
20 35 7z"/>
<path d="M4211 976 c-15 -18 -1 -148 17 -154 7 -2 17 9 23 27 14 39 37 40 69
1 28 -34 60 -40 60 -12 0 10 -5 23 -10 28 -8 8 -7 19 1 37 16 34 5 73 -23 81
-42 11 -125 7 -137 -8z m119 -41 c0 -11 -11 -15 -40 -15 -38 0 -49 8 -33 23 3
4 21 7 40 7 23 0 33 -5 33 -15z"/>
<path d="M4634 977 c-3 -8 -4 -45 -2 -83 2 -56 6 -69 21 -72 14 -3 17 4 17 42
0 25 4 47 8 50 5 3 31 -17 57 -44 29 -29 58 -50 71 -50 19 0 22 7 28 77 5 58
4 78 -6 84 -22 15 -33 4 -36 -37 -5 -57 -16 -61 -54 -18 -18 20 -39 43 -46 51
-17 17 -51 17 -58 0z"/>
<path d="M5370 963 l-22 -28 29 -22 c15 -13 42 -23 59 -23 37 0 48 -9 33 -26
-7 -9 -26 -11 -60 -7 -40 5 -49 3 -49 -10 0 -21 22 -27 93 -27 69 0 81 5 91
37 8 27 -27 53 -81 62 -52 9 -46 25 10 29 39 3 48 6 45 20 -3 13 -16 18 -65
20 -56 3 -62 1 -83 -25z"/>
<path d="M5774 977 c-3 -8 -4 -45 -2 -83 3 -61 5 -69 23 -69 17 0 20 7 20 40
0 54 16 56 40 6 26 -52 60 -64 86 -30 10 13 19 32 21 42 5 32 23 23 26 -13 4
-44 16 -57 37 -40 11 9 15 31 15 81 0 57 -3 69 -19 74 -10 3 -24 3 -32 0 -15
-6 -59 -82 -59 -102 0 -19 -21 -16 -36 5 -8 9 -24 36 -36 60 -18 34 -27 42
-50 42 -16 0 -31 -6 -34 -13z"/>
<path d="M6331 956 c-12 -18 -21 -37 -21 -40 0 -4 -12 -23 -26 -41 -14 -19
-23 -39 -19 -45 9 -15 53 -12 62 4 4 7 17 18 29 24 17 9 28 6 58 -14 38 -26
66 -26 66 -1 0 8 -7 20 -15 27 -8 7 -15 18 -15 26 0 7 -6 19 -13 26 -7 7 -18
25 -24 41 -18 39 -55 37 -82 -7z m59 -41 c13 -16 6 -35 -15 -35 -15 0 -28 27
-19 41 8 13 20 11 34 -6z"/>
<path d="M6713 978 c-7 -11 -9 -87 -4 -145 2 -24 32 -13 49 17 21 38 35 38 69
0 27 -31 56 -39 69 -18 4 6 0 16 -9 23 -18 13 -23 55 -7 55 17 0 11 46 -8 63
-23 21 -144 24 -159 5z m121 -34 c27 -10 7 -24 -34 -24 -60 0 -63 27 -3 29 12
1 28 -2 37 -5z"/>
<path d="M7123 983 c-33 -13 1 -49 38 -41 10 2 15 -14 19 -57 4 -52 8 -60 25
-60 17 0 20 8 23 58 2 40 7 57 17 57 7 0 26 5 40 10 23 9 25 13 15 25 -9 11
-33 15 -89 14 -42 0 -82 -3 -88 -6z"/>
</g>
</svg>
