<?xml version="1.0" standalone="no"?>
<!DOCTYPE svg PUBLIC "-//W3C//DTD SVG 20010904//EN"
 "http://www.w3.org/TR/2001/REC-SVG-20010904/DTD/svg10.dtd">
<svg version="1.0" xmlns="http://www.w3.org/2000/svg"
 width="900.000000pt" height="294.000000pt" viewBox="0 0 900.000000 294.000000"
 preserveAspectRatio="xMidYMid meet">
<metadata>
Created by potrace 1.10, written by Peter Selinger 2001-2011
</metadata>
<g transform="translate(0.000000,294.000000) scale(0.100000,-0.100000)"
fill="#fcfcfc" stroke="none">
<path d="M2640 2513 c0 -2 0 -393 -1 -870 l0 -868 173 -3 174 -2 -4 287 c-1
159 -8 326 -14 373 -6 47 -13 104 -15 128 -3 23 -9 42 -14 42 -5 0 -20 -24
-33 -52 -31 -66 -46 -221 -45 -439 0 -85 -3 -161 -6 -171 -13 -34 -75 -29 -89
7 -4 12 -8 640 -6 1302 0 128 7 143 70 143 78 0 99 -22 130 -140 20 -76 41
-153 55 -200 8 -25 22 -74 31 -110 21 -77 48 -124 98 -168 51 -44 80 -42 130
11 23 23 46 54 52 67 24 53 58 163 78 251 8 30 19 65 25 77 7 13 9 27 6 32 -4
6 1 24 9 42 9 17 16 41 16 52 0 22 24 64 44 78 6 4 31 8 56 8 53 0 64 -6 74
-40 4 -14 9 -326 12 -695 l4 -669 -23 -33 c-27 -40 -39 -41 -66 -7 -20 25 -21
39 -20 193 1 176 -5 265 -24 346 -12 51 -43 115 -56 115 -13 0 -33 -268 -40
-545 -4 -148 -6 -273 -4 -278 3 -4 83 -7 179 -7 l174 0 -3 872 -2 872 -185 -2
c-102 0 -188 -1 -191 -1 -4 -1 -9 -20 -12 -43 -5 -43 -19 -101 -40 -168 -6
-19 -14 -53 -18 -75 -4 -22 -11 -53 -17 -70 -26 -76 -51 -196 -58 -275 -7 -78
-13 -100 -28 -100 -23 0 -46 35 -46 71 0 19 -5 52 -11 74 -6 22 -14 58 -18 80
-4 22 -12 56 -18 75 -13 41 -32 115 -39 150 -3 14 -11 48 -19 75 -22 79 -44
168 -47 189 -3 18 -14 19 -191 20 -103 1 -187 0 -187 -1z"/>
<path d="M3914 2508 c-2 -4 -4 -395 -4 -870 l0 -863 327 -3 c427 -4 472 5 536
108 l22 35 0 745 0 745 -27 35 c-53 70 -50 69 -471 72 -209 2 -381 0 -383 -4z
m726 -133 c12 -11 27 -31 32 -45 6 -15 9 -279 9 -679 -2 -723 0 -704 -65 -738
-24 -13 -56 -15 -151 -13 -66 1 -136 2 -155 2 -222 -6 -253 -1 -270 44 -13 34
-12 1391 1 1415 16 31 63 36 325 35 237 -1 253 -2 274 -21z"/>
<path d="M4286 2320 c-40 -12 -104 -76 -127 -126 -17 -39 -19 -75 -18 -549 0
-428 2 -514 15 -544 17 -41 76 -106 116 -127 32 -17 127 -21 153 -7 34 19 118
109 131 140 11 26 14 132 14 521 1 269 -2 509 -6 533 -6 35 -18 55 -63 100
-68 67 -129 84 -215 59z m167 -109 c4 0 6 -256 5 -568 l-3 -568 -102 -3 -103
-3 0 569 c0 313 2 571 5 574 4 4 169 4 198 -1z"/>
<path d="M5630 1643 l0 -873 329 0 329 0 5 43 c5 46 22 139 38 202 6 22 13 51
16 64 l6 24 -182 -5 c-122 -3 -181 -1 -181 6 -1 48 2 1358 4 1380 l1 29 -183
1 -182 1 0 -872z m220 727 c19 -19 20 -35 20 -472 0 -592 5 -736 23 -779 8
-19 37 -55 65 -80 46 -41 59 -47 126 -58 88 -14 107 -30 75 -60 -13 -12 -28
-21 -33 -22 -174 -8 -295 -8 -322 1 -52 18 -55 38 -53 393 0 175 -1 320 -3
322 -2 3 -1 35 3 72 4 38 7 202 7 367 1 266 3 300 18 317 22 24 49 24 74 -1z"/>
<path d="M6460 2515 c0 0 -2 -393 -3 -873 l-2 -872 173 0 172 0 -1 233 c-1
331 -12 513 -33 562 l-18 39 -18 -35 c-34 -71 -42 -135 -49 -374 -5 -159 -11
-248 -19 -262 -14 -26 -39 -29 -68 -9 -18 14 -19 34 -20 715 -1 509 2 706 10
723 10 19 21 23 66 26 34 2 61 -2 71 -10 18 -14 69 -161 69 -197 0 -12 4 -29
9 -39 5 -9 17 -48 26 -87 38 -158 95 -264 163 -307 34 -21 34 -21 60 -1 39 28
102 114 102 138 0 12 4 25 9 30 5 6 16 35 24 65 8 30 27 98 41 150 14 52 30
104 36 115 5 11 14 40 19 64 12 55 36 80 81 82 48 3 78 -8 92 -34 8 -16 11
-198 10 -692 -1 -369 -4 -685 -8 -702 -3 -18 -12 -38 -20 -44 -16 -13 -51 -3
-63 19 -5 9 -11 117 -14 239 -7 238 -20 346 -47 378 -9 11 -20 28 -23 38 -16
44 -25 6 -32 -125 -10 -201 -22 -682 -18 -691 3 -4 80 -7 174 -7 l169 0 0 873
0 872 -185 -2 c-101 -1 -189 -4 -195 -8 -5 -3 -10 -21 -10 -40 0 -19 -5 -46
-11 -62 -7 -15 -15 -46 -20 -68 -10 -49 -27 -118 -42 -165 -6 -19 -14 -53 -18
-75 -8 -43 -25 -111 -40 -161 -5 -17 -9 -56 -9 -88 0 -43 -4 -58 -16 -63 -26
-10 -53 35 -54 87 -1 25 -7 63 -15 85 -8 22 -15 54 -15 70 0 17 -7 41 -15 55
-8 14 -14 36 -15 50 0 14 -6 45 -14 70 -16 50 -33 115 -46 175 -5 22 -15 62
-23 89 l-14 49 -181 1 c-100 0 -182 1 -182 1z"/>
<path d="M8125 2512 l-270 -3 -39 -27 c-22 -15 -50 -45 -62 -67 -23 -40 -23
-42 -24 -425 0 -415 -2 -398 52 -452 26 -26 136 -41 254 -35 72 3 108 1 120
-7 14 -11 16 -37 16 -195 0 -114 -4 -187 -11 -194 -6 -6 -82 -9 -211 -8 l-201
2 6 -48 c3 -26 12 -66 20 -88 7 -22 16 -71 19 -108 3 -37 8 -72 11 -77 4 -6
108 -10 257 -10 279 0 325 8 384 65 62 59 64 76 64 483 -1 490 14 464 -270
472 l-175 5 -3 192 c-2 176 -1 193 16 202 11 6 93 6 217 1 110 -4 203 -5 208
-3 12 7 8 38 -8 69 -8 16 -15 43 -15 59 0 17 -5 46 -11 65 -6 19 -14 58 -17
85 -6 45 -10 50 -32 50 -14 1 -146 -1 -295 -3z m181 -133 c22 -18 13 -52 -16
-60 -14 -4 -57 -7 -97 -8 -95 -1 -118 -12 -179 -77 -60 -65 -64 -82 -64 -263
0 -139 14 -176 85 -239 58 -51 94 -62 205 -62 94 0 124 -12 142 -59 6 -16 10
-140 9 -319 0 -283 -1 -294 -22 -332 -32 -57 -61 -65 -224 -63 -165 1 -209 10
-213 40 -4 25 30 48 58 40 10 -3 50 0 87 7 56 9 78 19 114 49 78 65 84 81 87
250 2 82 1 158 -2 171 -9 37 -77 116 -123 143 -38 22 -55 25 -149 27 -102 1
-107 3 -129 29 -34 38 -37 80 -33 388 3 244 5 277 21 300 17 25 46 42 92 53
42 9 337 -3 351 -15z"/>
<path d="M1060 2315 c-24 -13 -64 -31 -135 -60 -87 -37 -112 -48 -138 -61 -16
-8 -37 -14 -47 -14 -9 0 -23 -7 -30 -15 -7 -8 -21 -15 -30 -15 -10 0 -31 -6
-47 -14 -27 -14 -69 -32 -135 -59 -50 -21 -110 -47 -141 -63 -16 -8 -37 -14
-47 -14 -9 0 -23 -7 -30 -15 -7 -8 -18 -15 -26 -15 -7 0 -30 -7 -51 -16 -21
-9 -53 -22 -71 -30 -18 -7 -47 -20 -65 -28 -17 -8 -40 -17 -49 -20 -11 -3 -18
-15 -18 -29 0 -19 9 -28 43 -42 23 -10 57 -24 74 -32 18 -7 47 -20 65 -27 18
-8 50 -21 71 -30 21 -9 44 -16 52 -16 23 0 18 -23 -14 -67 -16 -22 -32 -49
-35 -61 -4 -12 -19 -31 -34 -43 -35 -27 -42 -47 -27 -84 14 -33 6 -132 -14
-200 -15 -48 -11 -110 7 -109 6 1 39 2 72 3 69 1 72 7 46 92 -15 47 -21 166
-14 249 7 69 96 194 193 268 46 35 127 68 219 88 63 13 107 15 210 11 152 -7
185 -14 194 -36 3 -9 10 -19 16 -23 8 -5 5 -16 -6 -35 -16 -26 -21 -28 -80
-26 -35 2 -98 8 -141 14 -89 13 -268 -2 -321 -27 -16 -8 -34 -14 -40 -14 -6 0
-28 -11 -49 -25 -32 -22 -36 -29 -27 -45 6 -11 19 -20 30 -20 11 0 36 -7 57
-16 21 -9 54 -24 73 -32 19 -9 49 -21 65 -28 38 -15 89 -37 140 -60 38 -17 74
-32 140 -60 17 -7 56 -25 88 -39 l57 -26 58 26 c132 60 172 77 242 104 30 12
66 27 80 33 78 32 98 41 123 54 16 8 35 14 44 14 8 0 27 6 41 13 15 8 42 21
60 30 19 9 40 17 47 17 7 0 26 6 42 14 15 8 45 21 66 30 20 9 54 23 75 32 20
9 50 22 65 30 16 8 36 14 45 14 9 0 26 7 36 15 11 8 28 15 38 15 10 0 26 4 36
9 9 6 30 12 45 16 42 9 30 35 -23 53 -25 8 -58 20 -73 28 -16 8 -37 14 -47 14
-9 0 -23 7 -30 15 -7 8 -21 15 -30 15 -10 0 -31 6 -47 14 -26 13 -50 24 -138
62 -19 8 -52 22 -72 31 -21 9 -51 22 -68 29 -33 13 -79 33 -137 58 -21 9 -52
23 -70 30 -18 7 -51 21 -73 31 -54 23 -104 44 -143 61 -67 28 -108 46 -135 60
-35 17 -73 17 -107 -1z m217 -156 c54 -22 105 -47 114 -55 8 -8 25 -14 37 -14
12 0 30 -4 40 -9 82 -44 145 -71 163 -71 12 0 31 -7 41 -17 19 -17 92 -50 198
-88 35 -13 73 -33 83 -46 18 -23 18 -23 -20 -45 -21 -12 -53 -31 -71 -43 -18
-11 -38 -18 -46 -15 -7 3 -19 -2 -26 -11 -7 -8 -18 -15 -24 -15 -6 0 -28 -9
-49 -20 -20 -11 -42 -20 -49 -20 -6 0 -19 -6 -27 -13 -14 -12 -42 -22 -119
-42 -14 -4 -21 -13 -20 -23 2 -13 -5 -17 -32 -18 -19 0 -53 -10 -75 -21 -22
-12 -65 -29 -95 -38 -30 -10 -66 -24 -78 -32 -44 -27 -120 -27 -212 0 -152 45
-186 62 -208 104 -18 33 -2 38 129 39 103 2 122 5 167 28 59 30 72 49 72 107
0 38 -5 48 -48 89 -48 46 -51 47 -129 54 -95 8 -323 -2 -340 -15 -6 -6 -22 -7
-36 -4 -20 5 -31 1 -48 -19 -14 -16 -29 -24 -39 -21 -9 3 -32 -6 -51 -19 -58
-43 -130 -77 -152 -74 -13 2 -29 18 -41 40 l-20 38 23 24 c13 13 34 27 48 31
53 13 209 78 228 95 11 10 34 20 50 23 30 5 97 30 190 73 57 25 100 43 165 69
25 9 54 21 65 26 63 26 116 19 242 -32z"/>
<path d="M4974 1761 c-2 -2 -4 -36 -4 -76 0 -39 -7 -96 -15 -128 -8 -31 -12
-62 -10 -69 4 -10 61 -13 261 -11 141 1 257 3 259 5 5 5 25 272 21 276 -5 5
-507 8 -512 3z"/>
<path d="M6807 1610 c3 -10 11 -25 19 -31 8 -6 14 -30 14 -52 0 -22 4 -54 9
-71 5 -17 17 -58 26 -91 9 -33 21 -73 27 -90 5 -16 14 -46 18 -65 4 -19 13
-48 18 -65 31 -91 42 -133 42 -158 0 -33 26 -77 46 -77 9 0 14 11 14 29 0 27
17 96 42 166 5 17 14 46 18 65 4 19 13 49 18 65 6 17 18 57 28 90 9 33 20 71
25 85 4 14 11 44 14 67 4 24 11 45 16 49 12 7 12 94 0 94 -24 0 -124 -155
-145 -227 -10 -33 -33 -48 -50 -34 -18 15 -66 106 -66 124 0 7 -13 28 -30 47
-16 19 -29 42 -30 51 0 8 -16 23 -35 32 -44 21 -44 21 -38 -3z"/>
<path d="M3000 1597 c0 -13 5 -28 12 -35 7 -7 15 -36 19 -64 10 -73 29 -151
40 -163 5 -5 9 -20 9 -33 0 -13 6 -38 14 -55 8 -18 16 -43 19 -57 3 -14 9 -38
15 -55 31 -93 42 -136 42 -163 0 -32 25 -65 44 -59 6 2 13 23 17 48 3 24 10
60 16 79 7 19 19 62 29 95 9 33 23 78 29 100 7 22 21 67 30 100 9 33 21 74 26
91 5 17 9 43 9 58 0 15 6 42 14 59 22 50 26 77 11 77 -24 0 -86 -81 -126 -163
-60 -125 -74 -126 -128 -14 -66 137 -141 219 -141 154z"/>
<path d="M500 1325 c0 -207 -8 -182 76 -255 37 -31 124 -90 134 -90 4 0 13 -7
20 -15 7 -8 20 -15 30 -15 10 0 23 -7 30 -15 7 -8 22 -15 34 -15 11 0 30 -7
40 -15 11 -8 32 -15 47 -15 14 0 43 -7 62 -15 49 -20 220 -20 277 0 23 8 53
15 65 15 13 0 36 6 52 14 15 8 60 29 98 47 73 35 164 97 228 158 l37 35 0 177
c0 98 -3 180 -7 182 -5 3 -24 -3 -43 -14 -19 -10 -42 -21 -50 -24 -40 -16
-129 -55 -180 -77 -19 -9 -55 -23 -80 -33 -79 -30 -163 -66 -213 -91 -32 -16
-87 -19 -87 -5 0 5 -10 13 -22 16 -13 4 -39 14 -58 22 -19 9 -50 23 -67 30
-18 7 -50 21 -70 30 -48 21 -99 43 -140 60 -18 7 -47 20 -65 28 -18 7 -40 16
-48 19 -8 4 -28 15 -45 25 -55 36 -55 37 -55 -164z m230 -10 c15 -18 151 -83
186 -89 12 -3 33 -12 47 -20 30 -20 255 -28 278 -10 8 6 48 24 89 39 41 16
100 42 130 58 45 23 62 27 95 22 22 -3 50 -15 62 -27 l21 -20 -34 -69 c-19
-38 -45 -74 -57 -80 -12 -7 -26 -18 -31 -26 -10 -18 -83 -51 -202 -91 -123
-42 -147 -46 -244 -43 -68 2 -89 7 -103 22 -10 10 -26 19 -35 19 -45 0 -198
66 -222 95 -8 10 -23 21 -35 25 -12 5 -27 27 -38 58 -10 28 -25 56 -33 63 -18
15 -18 39 1 39 7 0 18 6 22 13 21 35 82 48 103 22z"/>
<path d="M3233 533 c-14 -5 -18 -159 -5 -179 4 -7 41 -13 87 -14 107 -4 107
-4 103 23 -3 20 -10 23 -68 27 l-65 5 4 68 c2 41 -1 67 -7 67 -6 0 -16 2 -24
4 -7 3 -19 2 -25 -1z"/>
<path d="M3732 532 l-83 -3 3 -92 3 -92 103 -3 c97 -3 102 -2 102 18 0 18 -6
20 -69 20 -41 0 -73 5 -77 11 -11 18 14 26 65 21 53 -5 66 5 56 39 -7 22 -15
22 -89 3 -22 -5 -26 -3 -26 14 0 19 7 21 67 24 53 2 68 7 71 19 4 21 -20 25
-126 21z"/>
<path d="M5211 531 c-10 -6 -11 -21 -6 -59 4 -29 3 -52 -3 -56 -6 -3 -35 21
-65 54 -44 49 -60 60 -86 60 l-31 0 0 -89 c0 -66 4 -92 15 -101 26 -21 48 7
42 53 -8 60 16 59 72 -2 34 -37 54 -51 73 -51 15 0 30 5 33 11 4 6 8 47 9 90
2 67 -1 82 -15 90 -21 11 -21 11 -38 0z"/>
<path d="M5870 533 c-29 -6 -60 -35 -60 -57 0 -20 42 -47 94 -60 64 -17 50
-31 -27 -29 -65 2 -68 1 -65 -20 4 -31 97 -46 160 -25 37 12 43 19 46 45 4 36
-6 44 -80 68 -32 11 -58 22 -58 26 0 14 30 18 62 8 49 -14 58 -11 58 15 0 19
-6 24 -37 30 -40 6 -53 6 -93 -1z"/>
<path d="M7711 524 c-22 -17 1 -42 42 -46 32 -3 32 -3 33 -63 0 -69 7 -85 34
-85 27 0 34 16 34 85 l1 60 37 3 c27 2 39 9 43 23 4 11 4 23 1 26 -11 11 -209
8 -225 -3z"/>
<path d="M4146 488 c-10 -24 -29 -60 -42 -80 -13 -21 -24 -45 -24 -53 0 -27
29 -28 61 -1 39 33 82 34 121 1 61 -51 74 -11 25 74 -19 32 -37 67 -39 77 -2
14 -13 20 -43 22 -38 2 -41 0 -59 -40z m81 -63 c-5 -13 -37 -19 -48 -8 -5 5
-2 19 8 32 15 23 17 23 30 5 7 -10 12 -23 10 -29z"/>
<path d="M4559 528 c0 -2 -1 -43 -3 -91 -1 -78 1 -90 17 -99 25 -13 41 3 42
40 0 22 5 28 28 30 21 3 31 -3 44 -27 16 -27 50 -51 73 -51 16 0 11 50 -5 56
-8 4 -15 14 -15 24 0 10 7 23 15 30 21 18 19 46 -7 70 -18 17 -35 20 -105 20
-46 0 -83 -1 -84 -2z m136 -63 c0 -16 -7 -20 -35 -20 -29 0 -36 4 -38 23 -3
21 0 23 35 20 30 -2 38 -7 38 -23z"/>
<path d="M6262 438 l3 -93 28 -3 c26 -3 27 -2 27 47 0 28 4 51 9 51 5 0 20
-21 34 -47 18 -35 31 -49 50 -51 21 -3 28 4 50 50 27 55 34 53 39 -12 3 -29 7
-35 29 -38 34 -4 36 5 31 106 l-4 82 -39 0 c-29 0 -41 -5 -46 -17 -19 -58 -47
-104 -61 -101 -16 3 -21 11 -49 75 -17 40 -20 42 -61 43 l-43 0 3 -92z"/>
<path d="M6879 513 c-9 -10 -26 -42 -40 -70 -13 -29 -27 -53 -30 -53 -11 0
-19 -29 -13 -45 9 -22 28 -19 62 10 37 31 94 34 114 6 19 -26 57 -36 64 -17 3
9 3 22 0 29 -65 126 -84 152 -113 155 -18 2 -34 -3 -44 -15z m61 -68 c15 -18
5 -35 -20 -35 -22 0 -34 15 -26 35 7 19 30 19 46 0z"/>
<path d="M7279 528 c0 -2 -2 -42 -3 -91 -3 -94 4 -110 42 -96 17 7 22 15 20
36 -3 24 1 28 23 31 21 2 31 -4 48 -31 20 -33 55 -52 73 -41 14 9 9 41 -7 48
-8 3 -15 14 -15 24 0 11 7 25 15 32 22 18 19 43 -8 68 -20 19 -35 22 -105 22
-45 0 -82 -1 -83 -2z m136 -63 c0 -16 -7 -20 -35 -20 -29 0 -36 4 -38 23 -3
21 0 23 35 20 30 -2 38 -7 38 -23z"/>
</g>
</svg>
